<?xml version="1.0" standalone="no"?>
<!DOCTYPE svg PUBLIC "-//W3C//DTD SVG 20010904//EN"
 "http://www.w3.org/TR/2001/REC-SVG-20010904/DTD/svg10.dtd">
<svg version="1.0" xmlns="http://www.w3.org/2000/svg"
 width="1280.000000pt" height="1033.000000pt" viewBox="0 0 1280.000000 1033.000000"
 preserveAspectRatio="xMidYMid meet">
<g transform="translate(0.000000,1033.000000) scale(0.100000,-0.100000)"
fill="#000000" stroke="none">
<path d="M3745 10319 c-22 -6 -87 -21 -145 -34 -364 -85 -686 -385 -926 -865
-66 -134 -92 -227 -133 -475 -41 -254 -46 -308 -46 -610 1 -315 -1 -294 60
-665 13 -80 26 -170 30 -200 12 -109 13 -110 53 -110 20 0 42 4 48 8 6 4 14
52 17 107 8 125 20 176 108 455 189 601 275 805 445 1061 83 124 131 178 223
251 140 112 272 159 389 138 128 -22 260 -86 403 -196 66 -51 289 -242 289
-248 0 -1 -34 -38 -76 -81 -136 -141 -246 -299 -351 -505 -74 -146 -84 -175
-123 -375 -61 -307 -87 -646 -72 -905 5 -80 6 -149 1 -154 -5 -6 -65 13 -146
46 -178 71 -262 91 -388 92 -110 1 -182 -13 -265 -52 -161 -75 -262 -288 -247
-522 15 -226 83 -350 305 -560 67 -63 122 -119 122 -125 -1 -31 -646 -708
-1240 -1300 -254 -253 -665 -673 -913 -934 -249 -261 -524 -545 -612 -630 -88
-85 -249 -243 -357 -351 -195 -192 -198 -196 -198 -238 0 -48 -15 -47 128 -11
130 33 482 234 1372 786 372 230 386 238 1160 698 798 474 1119 682 1281 830
85 78 456 357 492 371 7 2 86 -68 176 -156 l163 -161 -24 -27 c-13 -15 -88
-97 -165 -182 -78 -85 -154 -167 -169 -181 -16 -15 -135 -81 -264 -149 -129
-67 -248 -130 -265 -140 -140 -84 -680 -350 -930 -460 -259 -113 -304 -135
-408 -203 -59 -38 -104 -73 -100 -77 8 -7 131 -24 268 -36 60 -5 393 18 618
42 45 5 57 4 57 -7 0 -8 -61 -75 -136 -149 -137 -136 -825 -854 -984 -1028
-47 -51 -208 -210 -359 -355 -285 -274 -548 -544 -538 -553 6 -7 166 28 242
53 108 35 554 292 1190 687 449 278 658 405 836 509 90 52 379 224 642 381
636 381 945 584 1112 731 90 80 294 235 309 235 6 0 80 -68 164 -150 l154
-151 -45 -52 c-25 -29 -103 -115 -173 -191 l-129 -140 -260 -139 c-334 -177
-790 -405 -975 -486 -313 -137 -349 -154 -454 -224 -125 -82 -128 -77 49 -97
115 -14 356 -9 530 10 55 6 121 10 145 8 l45 -3 -295 -300 c-162 -165 -443
-457 -624 -650 -181 -192 -440 -458 -575 -589 -279 -271 -621 -617 -621 -628
0 -18 123 -7 197 18 149 50 535 272 1368 789 215 133 469 288 565 345 1395
823 1644 982 1951 1248 37 31 155 121 262 200 l196 143 53 -27 c87 -44 203
-119 277 -179 68 -55 91 -91 91 -146 0 -49 -141 -199 -266 -281 -38 -26 -214
-122 -389 -214 -176 -91 -372 -194 -435 -229 -304 -165 -624 -320 -1024 -495
-123 -54 -364 -195 -352 -207 2 -2 48 -11 102 -18 115 -17 346 -19 477 -5 51
5 151 14 222 21 267 23 469 58 665 114 63 19 257 72 430 119 722 195 977 305
1287 554 220 177 386 405 448 615 27 90 -5 249 -80 396 -116 229 -511 678
-870 990 -77 66 -178 155 -225 197 -47 42 -134 116 -195 165 -71 57 -135 119
-180 176 -235 295 -464 519 -969 949 -166 140 -415 322 -576 420 -55 33 -105
65 -111 71 -28 28 134 475 263 726 183 356 405 571 633 610 55 9 75 8 151 -11
108 -27 223 -83 332 -163 74 -54 90 -73 165 -187 232 -354 558 -634 832 -713
69 -21 103 -24 254 -25 l175 0 15 -35 c116 -261 236 -446 406 -628 138 -146
335 -299 466 -361 60 -28 193 -64 281 -75 45 -6 47 -8 64 -53 144 -397 375
-711 706 -957 119 -89 231 -147 343 -177 115 -31 343 -31 466 -1 466 117 992
537 1282 1025 154 258 315 653 375 917 29 124 30 174 17 449 l-7 142 -74 0
-73 0 -6 -47 c-12 -89 -37 -157 -107 -298 -120 -240 -226 -410 -349 -560 -218
-266 -674 -628 -929 -737 -145 -62 -264 -24 -422 133 -78 78 -93 100 -141 201
-56 116 -128 303 -126 329 0 8 41 48 91 89 95 79 245 234 324 335 234 299 475
814 550 1178 25 118 26 130 19 355 l-7 232 -73 0 -73 0 -7 -52 c-11 -80 -40
-158 -116 -310 -117 -234 -243 -431 -370 -578 -161 -186 -487 -463 -702 -595
l-78 -49 -58 12 c-110 23 -174 13 -256 -39 -47 -30 -50 -30 -79 -16 -43 22
-143 103 -156 127 -13 25 -2 26 95 5 39 -8 120 -15 180 -15 259 0 486 92 659
267 107 108 176 226 232 393 25 77 28 99 29 225 0 120 -3 151 -23 215 -104
332 -328 555 -647 645 -33 10 -64 21 -69 25 -4 4 3 48 18 97 59 205 66 282 52
566 l-9 178 -71 -3 -70 -3 -12 -70 c-19 -111 -65 -219 -185 -432 -139 -250
-261 -413 -307 -413 -27 0 -27 10 -3 58 57 113 91 290 79 412 -47 472 -448
830 -928 830 -191 0 -403 -72 -559 -189 -49 -37 -71 -48 -71 -37 0 2 14 35 31
73 61 136 82 226 82 358 0 101 -5 134 -27 209 -83 278 -262 487 -511 600 -147
67 -365 99 -505 76 -340 -56 -600 -252 -728 -545 -54 -125 -64 -171 -69 -322
-3 -79 -7 -143 -8 -143 -1 0 -40 17 -86 39 -90 41 -244 98 -348 128 l-64 18
-57 113 c-149 290 -395 522 -787 741 -317 177 -688 290 -978 297 -60 1 -128
-2 -150 -7z m4025 -1878 c0 -5 -14 -40 -31 -78 -41 -91 -67 -195 -75 -303 -4
-50 -10 -90 -13 -90 -3 0 -36 28 -72 63 -111 106 -262 164 -366 139 -27 -6
-56 -14 -65 -17 -12 -5 -21 2 -33 24 -19 38 -22 37 110 51 180 18 344 79 470
174 61 46 75 53 75 37z m-2406 -167 c88 -23 209 -82 303 -150 105 -76 313
-254 313 -268 0 -6 -22 -25 -48 -43 -219 -149 -451 -448 -595 -769 -63 -139
-124 -483 -148 -832 -8 -116 -16 -182 -23 -182 -6 0 -56 41 -111 90 -286 257
-449 387 -697 556 -65 43 -118 84 -118 90 0 6 18 67 39 135 22 68 49 158 61
199 38 128 119 339 186 479 191 401 385 616 624 692 69 22 135 23 214 3z
m3646 -1070 c0 -18 -45 -61 -117 -111 -51 -35 -52 -35 -103 -23 -68 16 -155 8
-211 -20 -24 -13 -74 -52 -111 -87 l-67 -65 -32 63 c-17 35 -51 95 -75 132
-64 98 -63 98 49 66 49 -14 113 -23 203 -26 148 -6 243 8 372 57 92 34 92 34
92 14z"/>
</g>
</svg>
